<?xml version="1.0" encoding="utf-8"?>
<!-- Generator: Adobe Illustrator 17.1.0, SVG Export Plug-In . SVG Version: 6.00 Build 0)  -->
<!DOCTYPE svg PUBLIC "-//W3C//DTD SVG 1.1//EN" "http://www.w3.org/Graphics/SVG/1.1/DTD/svg11.dtd">
<svg version="1.1" id="Layer_1" xmlns="http://www.w3.org/2000/svg" xmlns:xlink="http://www.w3.org/1999/xlink" x="0px" y="0px"
	 viewBox="0 0 44 86.7" enable-background="new 0 0 44 86.7" xml:space="preserve">
<g>
	<path fill="#E0A628" d="M28.1,31.2C28.1,31.2,28.1,31.1,28.1,31.2L28.1,31.2z"/>
	<path fill="#E0A628" d="M25.4,47.5C25.4,47.5,25.4,47.5,25.4,47.5c0.2-0.1,0.4-0.2,0.5-0.2L25.4,47.5z"/>
	<path fill="#E0A628" d="M27.5,52.5C27.5,52.5,27.5,52.6,27.5,52.5C27.6,52.5,27.7,52.4,27.5,52.5z"/>
	<path fill="#E0A628" d="M19.1,42.2c0,0-0.1,0-0.1,0C19,42.1,19.1,42.2,19.1,42.2z"/>
	<path fill="#E0A628" d="M33.4,22.9C33.4,22.9,33.4,23,33.4,22.9c0,0,0.1,0,0.1,0.1L33.4,22.9z"/>
	<path fill="#E0A628" d="M33.6,23.2c-0.2,0-0.2-0.2-0.2-0.3c-0.3-0.1-0.4,0-0.4,0.2C33.3,23.4,33.4,23.1,33.6,23.2z"/>
	<path fill="#E0A628" d="M44,8.6L44,8.8C44,8.7,44,8.7,44,8.6z"/>
	<path fill="#E0A628" d="M1.9,44.4c-0.1,0-0.1-0.1-0.2-0.1C1.8,44.3,1.8,44.3,1.9,44.4z"/>
	<path fill="#E0A628" d="M42,10.6l0.4,0.3C42.2,10.8,42.1,10.7,42,10.6z"/>
	<path fill="#E0A628" d="M25.8,47.3l0.2-0.1C26,47.2,25.9,47.2,25.8,47.3z"/>
	<path fill="#E0A628" d="M30.2,56.7c-0.1,0.1-0.2,0.2-0.3,0.2c0,0,0,0,0,0L30.2,56.7z"/>
	<path fill="#E0A628" d="M38.7,81.3c0,0,0.1-0.1,0.1-0.1l-0.3,0.1C38.6,81.4,38.6,81.4,38.7,81.3z"/>
	<path fill="#E0A628" d="M32.5,63.4c0,0,0.1,0,0.2-0.1c0.1-0.2-0.1-0.5-0.3-0.8l-0.5,0.3L32.5,63.4z"/>
	<path fill="#E0A628" d="M25.6,77.7l0.5-1.3c1.8,1.5,1.5,3.1,3.5,4.1l-0.3,0.1c-0.1,0.4,2.2-1.1,1.5,3.5l-0.1,0.1
		c0.1,0.1,0.3-0.1,0.1,0.3l0.3-0.9c0.4,0.1,1.1,0,1.4,0.3c-0.1,0.2-0.2,0.3-0.4,0.5L33,85l-0.4,0.7c0.5,0,1.8-1.1,1.6,0.2
		c0.7-0.9,0.8-0.1,1.2-0.5c-0.1,0.1-0.2,0.3-0.3,0.5c0.4,0.3,1.3,0.9,1.9,0.8c0,0,0.7-3.1,1.4-4.3c0.2,0.8,0.2,0.1,0.5-0.3l-0.3,0.1
		c0-0.5,0.5-1,0.6-1.2c0,0-0.1,0.1-0.2,0.1l0.1,0c-0.1,0.1-0.2,0.1-0.2,0.2c-0.1,0.1-0.2,0.2-0.3,0l0.1,0c-0.2-0.1-0.3-0.4-0.3-0.6
		l0.5-0.4c-1.1,0.4,0.1-2.8-0.1-3.2c0.3-0.8-0.7-0.7-0.8-1.4c-0.4-0.8,0.4-0.9,0.6-1.5c0-0.7-0.5,0.5-0.7,0.4l0.3-1
		c0.3,0.3,0.5-0.1,0.6-0.3c-0.3-0.5,0.1-1.9-1-1.3c0-1,0.4-1.3,0.2-1.6c-0.1,0.2-0.1,0.5-0.3,0.7c0.2-0.6-0.2,0-0.2,0.1
		c-0.7-0.1,0.3-3.3-0.8-2.6l0.2-0.1c-0.9,0.5-1.5,1.2-2.2,1.3l0.2-0.4l-0.5,0c0.1-0.4,0.4-0.4,0.5-0.5c-0.7-0.2-0.7-1.1-1-1.7
		L32,69.3c0.2-0.8,0.6-2.4-0.2-1.9l0.5-0.8c0.7-1.9-1.1-0.2-0.9-0.8l0.5-1l0.3,0.5c0.1-0.7,0.2-1.1,0.5-1.8l0,0c0,0,0,0.1-0.1,0.1
		l-0.1,0c-0.4,0.2-0.9,0.2-1.1-0.1c-0.2-0.5-1.1-0.4-0.7-1.8l-0.9,0.4l0.1-0.9l0.6-0.5c0.3,0.6,1.3,1.4,1.8,2l0.3-0.2
		c-0.3-0.4-0.9-0.6-1-0.9c0-0.2,0.5-1,1.1-1.1l-0.8,0.2c-1.1-1.3-1.1-1.3-1.4-3.2l-0.2,0.4c-0.4-0.1-0.8-0.3-0.3-0.7
		c-0.5-0.9-0.7-2.1-0.3-3.2l-0.8,0.4c-0.1-0.2,0.9-1.3-0.3-0.6l-0.6-0.1c-0.1-0.3-0.7-0.1-0.4-0.7l0,0l0,0c0,0,0-0.1,0.1-0.1
		c0,0,0,0-0.1,0c-0.1-0.8-0.7,0.5-0.7-0.4c0.4-0.6-1.1,0.5-1.2,0.1l0.9-1.1c0.2-1-0.9-0.3-1.5-1.1c0.1-0.7,0.9-1.5,1.9-1.9
		c-1.3,0.4-0.8,0.3-1.6,0.2c0.4-0.4,0.5-0.4,0.9-0.6c0.2-0.8-0.6,0-0.8-0.3c-0.8,0.5-2.1,1.3-2.3,1.2L23,49c-0.7,0-1.1-0.2-1-0.9
		l0.4-0.3l-0.5-0.3l0.5-0.4l-0.6-0.5l-0.1,0.2c-0.2-0.1-0.7-0.4-0.6-0.9l0.3-0.2c0.3-1.4-1.2-1.1-1.9-1.9l0.6-0.3
		c0.2-0.4,0-0.2-0.3,0c-0.3,0.2-0.6,0.4-0.5,0.2l0.7-0.5c-1,0.5,0.1-0.3,0.5-0.5l-1,0.6l0.1-0.2c0.2-0.3,1.3-0.7,1.8-1
		c0,0-0.2,0.1-0.4,0.2c-0.2,0.1-0.4,0.2-0.4,0.2l0.9-0.4c-1.1,0.4,0.2-0.1-0.5,0.1c0.4-0.1,0.5-0.2,0.7-0.3c0,0-1.5,0.4-1.5,0.4
		c0,0,0.2,0,0.3-0.1c0.2,0,0.3-0.1,0.3-0.1l-1.5,0.4c-1.2,0.2,0.1-0.2-0.4-0.2l0.5,0c-0.5,0,0.2-0.2,0.5-0.3c-0.3,0.1-0.7,0.2-1,0.2
		c-0.1,0,0.6-0.1,0.7-0.2c-1.1,0.2-1.8,0.1-1.3-0.1c0.2,0,0.3,0,0.4,0c-0.2,0-0.5,0-0.3-0.1L20,42c0,0-0.3,0-0.6,0
		c-0.3,0-0.6,0-0.6,0c0.3-0.1-0.7-0.1,0.2-0.1l0.3,0l0-0.1l0.4-0.2l1,0.1c-1.4-0.2,0.6,0-1.1-0.3c0.9,0.1-0.4-0.4,1.3,0.1
		c0.1,0-0.2-0.2-0.5-0.4c-0.2-0.2-0.3-0.4,0.1-0.3c0.7,0.3,0.9,0.4,1,0.4c0,0,0,0,0,0l0,0l0.1-0.1c0.1-0.2,0.3-0.4,0.5-0.5
		c0.5-1.6,0.8-2.7,1.5-4.3c2.1,0.5,1-2.3,2.5-2.4l-0.4-0.7c1.4,0.2,0.9-1.5,2.5-1.5c-0.1-0.4-0.1-0.6-0.1-0.6c-0.1,0-0.2,0-0.6-0.3
		c0.4,0,0.5-0.7,1.2,0l0,0.1c0.7,0.7,0.2-1,1-0.6l-0.9-0.5l0.5-0.3l0.1,0.2c-0.4-3.3,2.9-1.9,2.6-5c0.7,1-0.2-0.7,0.8,0.1
		c1.6,0.6,0.4-1,0.3-1.6c0,0-0.1-0.1-0.2-0.2l0.6-0.5c1,1.4-0.7-1.3,0.1-0.1c2.2-0.8,2.9-3.6,4.9-5.1l-0.4-0.2
		c0.4-0.4,0.5-1.3,1.3-1.2c0.8,0.1-0.2-1.4-0.1-1.6c-0.2-0.8,1.1-0.3,1-0.2c0.2-0.5-0.6-1.9,0.3-2c1.2,0.7,0.2-2.4,1.4-1.4l-0.1-0.1
		c1.4,0,0.6-1.9,2-2.1c0,0,0.1,0.1,0.1,0.2l-2.3-4.5l-4.3-2.8L33,0.1l-2.4,4.3l-3.7,2L21.3,14l0.5,1.3c-2.7,0.2-2.4,3.5-4.8,4.1
		l0.7,0.7c-0.3,0.5-0.8,0.1-1,0.1c-1.6,2.1-2.9,4.4-4.4,6.5c-0.7,1.1-1.5,2.1-2.3,3c-0.2,0.2-0.4,0.5-0.6,0.7l-0.7,0.7
		c-0.8,0.8-1.5,1.6-2.4,2.4c-1.1,0.4-2.4,2.5-3.6,2.8c-0.4,1.9-1.4,3.5-2.7,5.1c0.5,0.7,1,1.3,1.4,2l-0.2-0.1l1,1
		c-0.1,0.1-0.2,0.1-0.3,0.1c1,0.5,1.5,1.3,1.9,2.1c0.4,0.8,0.8,1.8,1.1,2.6l-0.2,0c0.8,1.1,1.6,2.2,2.5,3.3l0.3,0.4L7.7,53l0.3,0.4
		l0.7,0.8c1,1.1,1.9,2.1,2.9,3.1c1.9,2.1,3.6,4.3,4.8,7c0.3,3.1,3.9,4.3,4.7,7.6C20.6,72.9,24.9,77.5,25.6,77.7z"/>
	<path fill="#E0A628" d="M32.2,84.3L32.2,84.3C31.8,84.5,31.9,84.4,32.2,84.3z"/>
	<polygon fill="#E0A628" points="33.7,67.1 33.8,67.1 34.1,66.7 	"/>
	<path fill="#E0A628" d="M38.9,73.5c-0.1-0.4-0.2-0.3-0.3-0.2C38.7,73.5,38.8,73.5,38.9,73.5z"/>
	<path fill="#E0A628" d="M34.6,86.2c0.1,0.2,0.2,0,0.4-0.3c-0.2-0.1-0.3-0.2-0.3-0.2C34.7,85.8,34.6,86.1,34.6,86.2z"/>
	<path fill="#E0A628" d="M38.7,82.2L39,82C38.9,82,38.8,82.1,38.7,82.2z"/>
</g>
</svg>
