<?xml version="1.0" encoding="utf-8"?>
<!-- Generator: Adobe Illustrator 17.1.0, SVG Export Plug-In . SVG Version: 6.00 Build 0)  -->
<!DOCTYPE svg PUBLIC "-//W3C//DTD SVG 1.1//EN" "http://www.w3.org/Graphics/SVG/1.1/DTD/svg11.dtd">
<svg version="1.1" id="Layer_1" xmlns="http://www.w3.org/2000/svg" xmlns:xlink="http://www.w3.org/1999/xlink" x="0px" y="0px"
	 viewBox="0 0 44 86.7" enable-background="new 0 0 44 86.7" xml:space="preserve">
<g>
	<path fill="#E0A628" d="M16,55.6C15.9,55.6,16,55.7,16,55.6L16,55.6z"/>
	<path fill="#E0A628" d="M18.7,39.3C18.7,39.3,18.7,39.3,18.7,39.3c-0.2,0.1-0.4,0.2-0.5,0.2L18.7,39.3z"/>
	<path fill="#E0A628" d="M16.5,34.3C16.5,34.3,16.5,34.2,16.5,34.3C16.4,34.3,16.3,34.4,16.5,34.3z"/>
	<path fill="#E0A628" d="M24.9,44.7c0,0,0.1,0,0.1,0C25,44.7,25,44.7,24.9,44.7z"/>
	<path fill="#E0A628" d="M10.6,63.9C10.6,63.9,10.6,63.9,10.6,63.9c0,0-0.1,0-0.1-0.1L10.6,63.9z"/>
	<path fill="#E0A628" d="M10.4,63.6c0.2,0,0.2,0.2,0.2,0.3c0.3,0.1,0.4,0,0.4-0.2C10.8,63.4,10.6,63.7,10.4,63.6z"/>
	<path fill="#E0A628" d="M0.1,78.2L0,78.1C0,78.1,0,78.1,0.1,78.2z"/>
	<path fill="#E0A628" d="M42.1,42.4c0.1,0,0.1,0.1,0.2,0.1C42.3,42.5,42.2,42.5,42.1,42.4z"/>
	<path fill="#E0A628" d="M2.1,76.2l-0.4-0.3C1.9,76,2,76.1,2.1,76.2z"/>
	<path fill="#E0A628" d="M18.2,39.5L18,39.6C18.1,39.6,18.1,39.6,18.2,39.5z"/>
	<path fill="#E0A628" d="M13.8,30.1C14,30,14,30,14.1,29.9c0,0,0,0,0,0L13.8,30.1z"/>
	<path fill="#E0A628" d="M5.3,5.5c0,0-0.1,0.1-0.1,0.1l0.3-0.1C5.5,5.5,5.4,5.5,5.3,5.5z"/>
	<path fill="#E0A628" d="M11.5,23.4c0,0-0.1,0-0.2,0.1c-0.1,0.2,0.1,0.5,0.3,0.8l0.5-0.3L11.5,23.4z"/>
	<path fill="#E0A628" d="M18.4,9.1l-0.5,1.3c-1.8-1.5-1.5-3.1-3.5-4.1l0.3-0.1c0.1-0.4-2.2,1.1-1.5-3.5l0.1-0.1
		c-0.1-0.1-0.3,0.1-0.1-0.3l-0.3,0.9c-0.4-0.1-1.1,0-1.4-0.3c0.1-0.2,0.2-0.3,0.4-0.5l-0.8-0.7l0.4-0.7C11,1.1,9.7,2.2,10,0.9
		C9.2,1.8,9.1,1,8.7,1.4C8.8,1.3,8.9,1.1,9,0.9C8.6,0.5,7.8-0.1,7.2,0.1c0,0-0.7,3.1-1.4,4.3C5.6,3.6,5.6,4.3,5.3,4.6l0.3-0.1
		c0,0.5-0.5,1-0.6,1.2c0,0,0.1-0.1,0.2-0.1l-0.1,0c0.1-0.1,0.2-0.1,0.2-0.2c0.1-0.1,0.2-0.2,0.3,0l-0.1,0C5.7,5.6,5.8,5.9,5.9,6
		L5.4,6.4C6.5,6,5.3,9.2,5.5,9.6c-0.3,0.8,0.7,0.7,0.8,1.4c0.4,0.8-0.4,0.9-0.6,1.5c0,0.7,0.5-0.5,0.7-0.4l-0.3,1
		c-0.3-0.3-0.5,0.1-0.6,0.3c0.3,0.5-0.1,1.9,1,1.3c0,1-0.4,1.3-0.2,1.6c0.1-0.2,0.1-0.5,0.3-0.7c-0.2,0.6,0.2,0,0.2-0.1
		c0.7,0.1-0.3,3.3,0.8,2.6l-0.2,0.1c0.9-0.5,1.5-1.2,2.2-1.3l-0.2,0.4l0.5,0c-0.1,0.4-0.4,0.4-0.5,0.5c0.7,0.2,0.7,1.1,1,1.7
		l1.7-2.2c-0.2,0.8-0.6,2.4,0.2,1.9l-0.5,0.8c-0.7,1.9,1.1,0.2,0.9,0.8l-0.5,1l-0.3-0.5c-0.1,0.7-0.2,1.1-0.5,1.8l0,0
		c0,0,0-0.1,0.1-0.1l0.1,0c0.4-0.2,0.9-0.2,1.1,0.1c0.2,0.5,1.1,0.4,0.7,1.8l0.9-0.4l-0.1,0.9l-0.6,0.5c-0.3-0.6-1.3-1.4-1.8-2
		l-0.3,0.2c0.3,0.4,0.9,0.6,1,0.9c0,0.2-0.5,1-1.1,1.1l0.8-0.2c1.1,1.3,1.1,1.3,1.4,3.2l0.2-0.4c0.4,0.1,0.8,0.3,0.3,0.7
		c0.5,0.9,0.7,2.1,0.3,3.2l0.8-0.4c0.1,0.2-0.9,1.3,0.3,0.6l0.6,0.1c0.1,0.3,0.7,0.1,0.4,0.7l0,0l0,0c0,0,0,0.1-0.1,0.1
		c0,0,0,0,0.1,0c0.1,0.8,0.7-0.5,0.7,0.4c-0.4,0.6,1.1-0.5,1.2-0.1l-0.9,1.1c-0.2,1,0.9,0.3,1.5,1.1c-0.1,0.7-0.9,1.5-1.9,1.9
		c1.3-0.4,0.8-0.3,1.6-0.2c-0.4,0.4-0.5,0.4-0.9,0.6c-0.2,0.8,0.6,0,0.8,0.3c0.8-0.5,2.1-1.3,2.3-1.2l0.2-0.3c0.7,0,1.1,0.2,1,0.9
		L21.7,39l0.5,0.3l-0.5,0.4l0.6,0.5l0.1-0.2c0.2,0.1,0.7,0.4,0.6,0.9l-0.3,0.2c-0.3,1.4,1.2,1.1,1.9,1.9L24,43.1
		c-0.2,0.4,0,0.2,0.3,0c0.3-0.2,0.6-0.4,0.5-0.2L24,43.4c1-0.5-0.1,0.3-0.5,0.5l1-0.6l-0.1,0.2c-0.2,0.3-1.3,0.7-1.8,1
		c0,0,0.2-0.1,0.4-0.2c0.2-0.1,0.4-0.2,0.4-0.2l-0.9,0.4c1.1-0.4-0.2,0.1,0.5-0.1c-0.4,0.1-0.5,0.2-0.7,0.3c0,0,1.5-0.4,1.5-0.4
		c0,0-0.2,0-0.3,0.1c-0.2,0-0.3,0.1-0.3,0.1l1.5-0.4c1.2-0.2-0.1,0.2,0.4,0.2l-0.5,0c0.5,0-0.2,0.2-0.5,0.3c0.3-0.1,0.7-0.2,1-0.2
		c0.1,0-0.6,0.1-0.7,0.2c1.1-0.2,1.8-0.1,1.3,0.1c-0.2,0-0.3,0-0.4,0c0.2,0,0.5,0,0.3,0.1L24,44.8c0,0,0.3,0,0.6,0
		c0.3,0,0.6,0,0.6,0c-0.3,0.1,0.7,0.1-0.2,0.1l-0.3,0l0,0.1l-0.4,0.2l-1-0.1c1.4,0.2-0.6,0,1.1,0.3c-0.9-0.1,0.4,0.4-1.3-0.1
		c-0.1,0,0.2,0.2,0.5,0.4c0.2,0.2,0.3,0.4-0.1,0.3c-0.7-0.3-0.9-0.4-1-0.4c0,0,0,0,0,0l0,0l-0.1,0.1c-0.1,0.2-0.3,0.4-0.5,0.5
		c-0.5,1.6-0.8,2.7-1.5,4.3c-2.1-0.5-1,2.3-2.5,2.4l0.4,0.7c-1.4-0.2-0.9,1.5-2.5,1.5c0.1,0.4,0.1,0.6,0.1,0.6c0.1,0,0.2,0,0.6,0.3
		c-0.4,0-0.5,0.7-1.2,0l0-0.1c-0.7-0.7-0.2,1-1,0.6l0.9,0.5l-0.5,0.3l-0.1-0.2c0.4,3.3-2.9,1.9-2.6,5c-0.7-1,0.2,0.7-0.8-0.1
		c-1.6-0.6-0.4,1-0.3,1.6c0,0,0.1,0.1,0.2,0.2l-0.6,0.5c-1-1.4,0.7,1.3-0.1,0.1c-2.2,0.8-2.9,3.6-4.9,5.1L6,69.7
		c-0.4,0.4-0.5,1.3-1.3,1.2c-0.8-0.1,0.2,1.4,0.1,1.6c0.2,0.8-1.1,0.3-1,0.2c-0.2,0.5,0.6,1.9-0.3,2c-1.2-0.7-0.2,2.4-1.4,1.4
		l0.1,0.1c-1.4,0-0.6,1.9-2,2.1c0,0-0.1-0.1-0.1-0.2l2.3,4.5l4.3,2.8l4.4,1.2l2.4-4.3l3.7-2l5.5-7.7l-0.5-1.3
		c2.7-0.2,2.4-3.5,4.8-4.1l-0.7-0.7c0.3-0.5,0.8-0.1,1-0.1c1.6-2.1,2.9-4.4,4.4-6.5c0.7-1.1,1.5-2.1,2.3-3c0.2-0.2,0.4-0.5,0.6-0.7
		l0.7-0.7c0.8-0.8,1.5-1.6,2.4-2.4c1.1-0.4,2.4-2.5,3.6-2.8c0.4-1.9,1.4-3.5,2.7-5.1c-0.5-0.7-1-1.3-1.4-2l0.2,0.1l-1-1
		c0.1-0.1,0.2-0.1,0.3-0.1c-1-0.5-1.5-1.3-1.9-2.1c-0.4-0.8-0.8-1.8-1.1-2.6l0.2,0c-0.8-1.1-1.6-2.2-2.5-3.3L36.5,34l-0.2-0.2
		L36,33.4l-0.7-0.8c-1-1.1-1.9-2.1-2.9-3.1c-1.9-2.1-3.6-4.3-4.8-7c-0.3-3.1-3.9-4.3-4.7-7.6C23.4,13.9,19.1,9.3,18.4,9.1z"/>
	<path fill="#E0A628" d="M11.9,2.6L11.9,2.6C12.2,2.3,12.1,2.4,11.9,2.6z"/>
	<polygon fill="#E0A628" points="10.3,19.7 10.3,19.7 9.9,20.1 	"/>
	<path fill="#E0A628" d="M5.1,13.3c0.1,0.4,0.2,0.3,0.3,0.2C5.4,13.4,5.3,13.3,5.1,13.3z"/>
	<path fill="#E0A628" d="M9.5,0.6C9.4,0.4,9.2,0.6,9,0.9C9.2,1,9.3,1.1,9.3,1.1C9.3,1,9.4,0.7,9.5,0.6z"/>
	<path fill="#E0A628" d="M5.3,4.6L5,4.8C5.2,4.8,5.3,4.7,5.3,4.6z"/>
</g>
</svg>
