<?xml version="1.0" encoding="utf-8"?>
<!-- Generator: Adobe Illustrator 17.1.0, SVG Export Plug-In . SVG Version: 6.00 Build 0)  -->
<!DOCTYPE svg PUBLIC "-//W3C//DTD SVG 1.1//EN" "http://www.w3.org/Graphics/SVG/1.1/DTD/svg11.dtd">
<svg version="1.1" id="Layer_1" xmlns="http://www.w3.org/2000/svg" xmlns:xlink="http://www.w3.org/1999/xlink" x="0px" y="0px"
	 viewBox="0 0 56 42.7" enable-background="new 0 0 56 42.7" xml:space="preserve">
<g>
	<path fill="#d66839" d="M16.4,1.1C16.4,1.1,16.3,1.1,16.4,1.1L16.4,1.1z"/>
	<path fill="#d66839" d="M34.8,0.4C34.8,0.4,34.8,0.4,34.8,0.4c0-0.1,0-0.2,0.1-0.3L34.8,0.4z"/>
	<path fill="#d66839" d="M37.7,1C37.7,1,37.7,1,37.7,1C37.7,1,37.7,0.9,37.7,1z"/>
	<path fill="#d66839" d="M27.9,1.3C27.9,1.3,27.9,1.3,27.9,1.3C27.9,1.3,27.9,1.3,27.9,1.3z"/>
	<path fill="#d66839" d="M11,1.6C11,1.6,11,1.6,11,1.6C11,1.6,11,1.6,11,1.6L11,1.6z"/>
	<path fill="#d66839" d="M11,1.5c0.1,0.1,0,0.1,0,0.2c0.1,0.1,0.1,0.1,0.2,0.1C11.2,1.6,11.1,1.6,11,1.5z"/>
	<path fill="#d66839" d="M1.1,2.1L1.1,2.1C1.2,2,1.2,2.1,1.1,2.1z"/>
	<path fill="#d66839" d="M28.2,8.9C28.2,8.9,28.2,8.9,28.2,8.9C28.2,8.9,28.2,8.9,28.2,8.9z"/>
	<path fill="#d66839" d="M2.7,2.2l0-0.2C2.7,2.1,2.7,2.2,2.7,2.2z"/>
	<path fill="#d66839" d="M34.8,0.1L34.8,0.1C34.8,0.1,34.8,0.1,34.8,0.1z"/>
	<path fill="#d66839" d="M40.4,1.2c0,0.1,0,0.1,0,0.2c0,0,0,0,0,0L40.4,1.2z"/>
	<path fill="#d66839" d="M54.2,5.1C54.2,5,54.2,5,54.2,5.1L54.2,5.1C54.2,5.1,54.2,5.1,54.2,5.1z"/>
	<path fill="#d66839" d="M44.2,2.2C44.2,2.2,44.2,2.2,44.2,2.2C44.1,2.1,44,2,43.8,2l0,0.3L44.2,2.2z"/>
	<path fill="#d66839" d="M48.3,9.2l-0.4-0.6c1.3-0.3,1.9,0.3,3-0.2l-0.1,0.1C51,8.7,51,7.4,52.8,9v0.1c0.1,0,0.1-0.1,0.2,0l-0.3-0.4
		c0.2-0.2,0.3-0.4,0.6-0.5c0.1,0.1,0.1,0.2,0.1,0.3l0.6-0.1l0.2,0.4c0.2-0.2,0.1-1,0.6-0.6c-0.2-0.6,0.2-0.3,0.2-0.6
		c0,0.1,0.1,0.2,0.1,0.3c0.3-0.1,0.8-0.2,1-0.5c0,0-1.1-1.2-1.4-1.8c0.4,0.2,0.1-0.1,0-0.3l0,0.1c-0.2-0.1-0.2-0.5-0.4-0.6
		c0,0,0,0.1,0,0.1l0,0c0,0.1,0,0.1,0,0.1c0,0.1,0,0.1-0.1,0.1l0,0c-0.1,0.1-0.3,0-0.4,0l0-0.3c-0.2,0.6-1.2-0.9-1.5-0.9
		c-0.2-0.4-0.5,0.1-0.9-0.1C51,3.7,51.2,3.4,51,3.1c-0.3-0.2,0.1,0.4-0.1,0.4l-0.4-0.4c0.2,0,0.1-0.2,0.1-0.3
		c-0.3-0.1-0.8-0.6-0.9,0c-0.4-0.3-0.4-0.5-0.6-0.6c0.1,0.1,0.2,0.2,0.2,0.3c-0.2-0.3-0.1,0.1,0,0.1c-0.3,0.3-1.4-1.1-1.4-0.4V2.1
		c-0.1,0.5,0,1-0.1,1.2l-0.1-0.2l-0.2,0.2C47.3,3.1,47.3,3,47.3,3c-0.3,0.2-0.7,0-1.1-0.1l0.4,1.3c-0.3-0.3-0.9-0.9-0.9-0.5
		l-0.2-0.5c-0.6-0.9-0.4,0.4-0.7,0.1l-0.3-0.5l0.3,0c-0.3-0.2-0.4-0.4-0.7-0.7c0,0,0,0,0,0c0,0,0,0,0,0.1l0,0c0,0.2-0.2,0.4-0.4,0.4
		c-0.3-0.1-0.5,0.3-1-0.2l-0.1,0.5l-0.4-0.3V2.2c0.4,0,1-0.1,1.5-0.1l0-0.2C43.5,1.9,43.2,2,43,2c-0.1-0.1-0.3-0.5-0.1-0.8l-0.2,0.4
		c-0.9,0-0.9,0.1-1.9-0.4l0.1,0.2c-0.2,0.1-0.4,0.2-0.4-0.1c-0.6-0.1-1.2-0.3-1.5-0.8L38.8,1c-0.1,0-0.3-0.7-0.4-0.1l-0.3,0.2
		c-0.2,0-0.3,0.2-0.5,0c0,0,0,0,0,0c0,0,0,0,0,0c0,0,0,0,0-0.1c0,0,0,0,0,0c-0.4-0.2,0,0.4-0.4,0.2c-0.1-0.3-0.2,0.6-0.4,0.5L36.7,1
		c-0.4-0.4-0.4,0.3-1,0.3c-0.3-0.2-0.4-0.8-0.2-1.3c-0.2,0.6-0.1,0.4-0.4,0.7c0-0.3,0-0.3,0.1-0.5c-0.3-0.3-0.2,0.2-0.4,0.2
		c-0.1,0.5-0.1,1.2-0.2,1.3l0.1,0.1c-0.2,0.3-0.5,0.4-0.7,0.1l0-0.2l-0.3,0.1l0-0.3l-0.4,0.1l0.1,0.1c-0.1,0-0.4,0.1-0.6,0l0-0.2
		c-0.5-0.5-0.9,0.2-1.5,0.2l0.1-0.4C31.1,1,31.3,1.9,31,1.7l0-0.4c-0.2,0.6-0.3-0.1-0.4-0.3l0.1,0.6l-0.3-0.1
		c-0.3-0.2-0.2-0.7-0.1-1l-0.2,0.4l0-0.5c-0.1,0.6-0.1-0.1-0.4,0.2c0-0.2,0-0.3,0-0.4l-0.4,0.7l0.3-0.3l0,0.7
		c-0.3,0.6-0.4-0.1-0.6,0.1L29,1.2c-0.3,0.2-0.3-0.1-0.5-0.3c0.1,0.1,0.1,0.3,0,0.4c-0.1,0-0.1-0.3-0.1-0.3c0,0.5-0.2,0.7-0.4,0.5
		c0-0.1,0-0.1,0-0.2c-0.1,0.1-0.1,0.2-0.2,0.1l0.1-0.5l-0.2,0.5c-0.1-0.1-0.3,0.2-0.3-0.1l0.1-0.1l-0.9-0.1l0-0.4
		c-0.1,0.6-0.5-0.2-0.4,0.5c-0.2-0.4-0.6,0.3-0.6-0.5c-0.6-0.1-0.9,0.7-1.6,0.3c-0.2-0.7-0.9-0.5-1.4-0.6c-0.9,0.3-1.4,0.6-2.3,0.8
		c-0.5-1-1.3,0.3-1.9-0.2l-0.2,0.4c-0.4-0.6-1,0.1-1.5-0.5c-0.1,0.2-0.2,0.2-0.2,0.2c0,0,0.1,0.1,0.1,0.3C16.3,1.3,16,1.5,16,1
		l0-0.1c0-0.5-0.5,0.2-0.6-0.2l0.1,0.5l-0.3-0.1l0.1-0.1c-1.3,1.2-1.8-0.5-3,0.6C12.4,1.1,12,2,12,1.3c-0.3-0.8-0.6,0.2-0.8,0.4
		c0,0,0,0.1,0,0.1l-0.4-0.1c0.3-0.8-0.3,0.7-0.1,0c-1.1-0.6-2.6,0-3.9-0.3l0.1,0.2c-0.3,0-0.7,0.2-1-0.1C5.6,1.2,5.3,2.1,5.2,2.1
		C4.9,2.5,4.7,1.8,4.8,1.8c-0.3,0.1-0.6,0.8-1,0.5C3.7,1.6,2.7,3,2.7,2.2l0,0.1c-0.5-0.5-1,0.4-1.6-0.1c0,0,0-0.1,0-0.1L0,4.4L0.3,7
		l1,2.1L4,8.6l2.1,0.8l5.2-0.3l0.4-0.6c1,1,2.3-0.2,3.4,0.6l0-0.5c0.3,0,0.3,0.3,0.4,0.4c2.9-0.1,5.9-0.8,8.5-0.1
		c0.3,0.3,1,0.1,1.2,0.5c0.8-0.6,1.7-0.6,2.6-0.5l0,0.1l0.4-0.1c0,0,0,0.1,0,0.1c0.5-0.4,1.2,0,1.7,0.2l0,0.1
		c3.2,0.1,6.2-0.8,9.4-0.1c1.5,0.8,3.2-0.3,4.9,0.4C44.5,9.8,48,9.5,48.3,9.2z"/>
	<path fill="#d66839" d="M53.4,8.6L53.4,8.6C53.3,8.8,53.4,8.7,53.4,8.6z"/>
	<path fill="#d66839" d="M46.2,2.8C46.2,2.8,46.3,2.8,46.2,2.8l-0.1-0.3L46.2,2.8z"/>
	<path fill="#d66839" d="M50.8,2.7c-0.2-0.1-0.2,0-0.2,0.1C50.7,2.7,50.7,2.7,50.8,2.7z"/>
	<path fill="#d66839" d="M55,8.2c0.1,0,0.1-0.1,0-0.2c-0.1,0-0.2,0-0.2,0C54.9,8,55,8.1,55,8.2z"/>
	<path fill="#d66839" d="M54.6,5.3l0-0.2C54.6,5.2,54.6,5.3,54.6,5.3z"/>
</g>
<g>
	<path fill="#d66839" d="M39.6,25C39.6,25,39.7,25,39.6,25L39.6,25z"/>
	<path fill="#d66839" d="M21.2,25.7C21.2,25.7,21.2,25.7,21.2,25.7c0,0.1,0,0.2-0.1,0.3L21.2,25.7z"/>
	<path fill="#d66839" d="M18.3,25.1C18.3,25.1,18.3,25.1,18.3,25.1C18.3,25.1,18.3,25.2,18.3,25.1z"/>
	<path fill="#d66839" d="M28.1,24.8C28.1,24.8,28.1,24.8,28.1,24.8C28.1,24.8,28.1,24.8,28.1,24.8z"/>
	<path fill="#d66839" d="M45,24.5C45,24.5,45,24.5,45,24.5C45,24.5,45,24.5,45,24.5L45,24.5z"/>
	<path fill="#d66839" d="M45,24.6c-0.1-0.1,0-0.1,0-0.2c-0.1-0.1-0.1-0.1-0.2-0.1C44.8,24.5,44.9,24.5,45,24.6z"/>
	<path fill="#d66839" d="M54.9,24L54.9,24C54.8,24.1,54.8,24.1,54.9,24z"/>
	<path fill="#d66839" d="M27.8,17.2C27.8,17.2,27.8,17.2,27.8,17.2C27.8,17.2,27.8,17.2,27.8,17.2z"/>
	<path fill="#d66839" d="M53.3,23.9l0,0.2C53.3,24,53.3,24,53.3,23.9z"/>
	<path fill="#d66839" d="M21.2,26L21.2,26C21.2,26.1,21.2,26,21.2,26z"/>
	<path fill="#d66839" d="M15.6,25c0-0.1,0-0.1,0-0.2c0,0,0,0,0,0L15.6,25z"/>
	<path fill="#d66839" d="M1.8,21.1C1.8,21.1,1.8,21.1,1.8,21.1L1.8,21.1C1.8,21,1.8,21,1.8,21.1z"/>
	<path fill="#d66839" d="M11.8,23.9C11.8,23.9,11.8,23.9,11.8,23.9c0.1,0.2,0.2,0.2,0.4,0.2l0-0.3L11.8,23.9z"/>
	<path fill="#d66839" d="M7.7,16.9l0.4,0.6c-1.3,0.3-1.9-0.3-3,0.2l0.1-0.1c-0.2-0.1-0.2,1.2-2-0.4V17c-0.1,0-0.1,0.1-0.2,0l0.3,0.4
		c-0.2,0.2-0.3,0.4-0.6,0.5c-0.1-0.1-0.1-0.2-0.1-0.3l-0.6,0.1l-0.2-0.4c-0.2,0.2-0.1,1-0.6,0.6c0.2,0.6-0.2,0.3-0.2,0.6
		c0-0.1-0.1-0.2-0.1-0.3c-0.3,0.1-0.8,0.2-1,0.5c0,0,1.1,1.2,1.4,1.8c-0.4-0.2-0.1,0.1,0,0.3l0-0.1c0.2,0.1,0.2,0.5,0.4,0.6
		c0,0,0-0.1,0-0.1l0,0c0-0.1,0-0.1,0-0.1c0-0.1,0-0.1,0.1-0.1l0,0c0.1-0.1,0.3,0,0.4,0l0,0.3c0.2-0.6,1.2,0.9,1.5,0.9
		c0.2,0.4,0.5-0.1,0.9,0.1C5,22.4,4.8,22.7,5,23c0.3,0.2-0.1-0.4,0.1-0.4L5.4,23c-0.2,0-0.1,0.2-0.1,0.3c0.3,0.1,0.8,0.6,0.9,0
		c0.4,0.3,0.4,0.5,0.6,0.6c-0.1-0.1-0.2-0.2-0.2-0.3c0.2,0.3,0.1-0.1,0-0.1c0.3-0.3,1.4,1.1,1.4,0.4V24c0.1-0.5,0-1,0.1-1.2L8.4,23
		l0.2-0.2c0.1,0.2,0.1,0.3,0.1,0.4c0.3-0.2,0.7,0,1.1,0.1l-0.4-1.3c0.3,0.3,0.9,0.9,0.9,0.5l0.2,0.5c0.6,0.9,0.4-0.4,0.7-0.1
		l0.3,0.5l-0.3,0c0.3,0.2,0.4,0.4,0.7,0.7c0,0,0,0,0,0c0,0,0,0,0-0.1l0,0c0-0.2,0.2-0.4,0.4-0.4c0.3,0.1,0.5-0.3,1,0.2l0.1-0.5
		l0.4,0.3v0.4c-0.4,0-1,0.1-1.5,0.1l0,0.2c0.3,0,0.6-0.2,0.8-0.1c0.1,0.1,0.3,0.5,0.1,0.8l0.2-0.4c0.9,0,0.9-0.1,1.9,0.4l-0.1-0.2
		c0.2-0.1,0.4-0.2,0.4,0.1c0.6,0.1,1.2,0.3,1.5,0.8l0.1-0.5c0.1,0,0.3,0.7,0.4,0.1l0.3-0.2c0.2,0,0.3-0.2,0.5,0c0,0,0,0,0,0
		c0,0,0,0,0,0c0,0,0,0,0,0.1c0,0,0,0,0,0c0.4,0.2,0-0.4,0.4-0.2c0.1,0.3,0.2-0.6,0.4-0.5l0.2,0.7c0.4,0.4,0.4-0.3,1-0.3
		c0.3,0.2,0.4,0.8,0.2,1.3c0.2-0.6,0.1-0.4,0.4-0.7c0,0.3,0,0.3-0.1,0.5c0.3,0.3,0.2-0.2,0.4-0.2c0.1-0.5,0.1-1.2,0.2-1.3l-0.1-0.1
		c0.2-0.3,0.5-0.4,0.7-0.1l0,0.2l0.3-0.1l0,0.3l0.4-0.1l-0.1-0.1c0.1,0,0.4-0.1,0.6,0l0,0.2c0.5,0.5,0.9-0.2,1.5-0.2l-0.1,0.4
		c0.2,0.3,0.1-0.5,0.3-0.4l0,0.4c0.2-0.6,0.3,0.1,0.4,0.3l-0.1-0.6l0.3,0.1c0.3,0.2,0.2,0.7,0.1,1l0.2-0.4l0,0.5
		c0.1-0.6,0.1,0.1,0.4-0.2c0,0.2,0,0.3,0,0.4l0.4-0.7l-0.3,0.3l0-0.7c0.3-0.6,0.4,0.1,0.6-0.1L27,24.9c0.3-0.2,0.3,0.1,0.5,0.3
		c-0.1-0.1-0.1-0.3,0-0.4c0.1,0,0.1,0.3,0.1,0.3c0-0.5,0.2-0.7,0.4-0.5c0,0.1,0,0.1,0,0.2c0.1-0.1,0.1-0.2,0.2-0.1l-0.1,0.5l0.2-0.5
		c0.1,0.1,0.3-0.2,0.3,0.1l-0.1,0.1l0.9,0.1l0,0.4c0.1-0.6,0.5,0.2,0.4-0.5c0.2,0.4,0.6-0.3,0.6,0.5c0.6,0.1,0.9-0.7,1.6-0.3
		c0.2,0.7,0.9,0.5,1.4,0.6c0.9-0.3,1.4-0.6,2.3-0.8c0.5,1,1.3-0.3,1.9,0.2l0.2-0.4c0.4,0.6,1-0.1,1.5,0.5c0.1-0.2,0.2-0.2,0.2-0.2
		c0,0-0.1-0.1-0.1-0.3c0.2,0.2,0.5,0,0.4,0.5l0,0.1c0,0.5,0.5-0.2,0.6,0.2l-0.1-0.5l0.3,0.1L40.7,25c1.3-1.2,1.8,0.5,3-0.6
		C43.6,25,44,24.1,44,24.8c0.3,0.8,0.6-0.2,0.8-0.4c0,0,0-0.1,0-0.1l0.4,0.1c-0.3,0.8,0.3-0.7,0.1,0c1.1,0.6,2.6,0,3.9,0.3l-0.1-0.2
		c0.3,0,0.7-0.2,1,0.1c0.3,0.3,0.5-0.5,0.6-0.6c0.3-0.4,0.5,0.4,0.4,0.3c0.3-0.1,0.6-0.8,1-0.5c0.1,0.7,1.1-0.7,1.1,0.1l0-0.1
		c0.5,0.5,1-0.4,1.6,0.1c0,0,0,0.1,0,0.1l1.1-2.3l-0.3-2.6l-1-2.1L52,17.5l-2.1-0.8L44.6,17l-0.4,0.6c-1-1-2.3,0.2-3.4-0.6l0,0.5
		c-0.3,0-0.3-0.3-0.4-0.4c-2.9,0.1-5.9,0.8-8.5,0.1c-0.3-0.3-1-0.1-1.2-0.5c-0.8,0.6-1.7,0.6-2.6,0.5l0-0.1l-0.4,0.1
		c0,0,0-0.1,0-0.1c-0.5,0.4-1.2,0-1.7-0.2l0-0.1c-3.2-0.1-6.2,0.8-9.4,0.1c-1.5-0.8-3.2,0.3-4.9-0.4C11.5,16.3,8,16.6,7.7,16.9z"/>
	<path fill="#d66839" d="M2.6,17.5L2.6,17.5C2.7,17.3,2.6,17.4,2.6,17.5z"/>
	<path fill="#d66839" d="M9.8,23.3C9.8,23.3,9.7,23.3,9.8,23.3l0.1,0.3L9.8,23.3z"/>
	<path fill="#d66839" d="M5.2,23.5c0.2,0.1,0.2,0,0.2-0.1C5.3,23.4,5.3,23.4,5.2,23.5z"/>
	<path fill="#d66839" d="M1,17.9c-0.1,0-0.1,0.1,0,0.2c0.1,0,0.2,0,0.2,0C1.1,18.1,1,18,1,17.9z"/>
	<path fill="#d66839" d="M1.4,20.8l0,0.2C1.4,20.9,1.4,20.9,1.4,20.8z"/>
</g>
<g>
	<path fill="#d66839" d="M16.4,34.2C16.4,34.2,16.3,34.2,16.4,34.2L16.4,34.2z"/>
	<path fill="#d66839" d="M34.8,33.5C34.8,33.5,34.8,33.5,34.8,33.5c0-0.1,0-0.2,0.1-0.3L34.8,33.5z"/>
	<path fill="#d66839" d="M37.7,34.1C37.7,34.1,37.7,34.1,37.7,34.1C37.7,34.1,37.7,34,37.7,34.1z"/>
	<path fill="#d66839" d="M27.9,34.4C27.9,34.4,27.9,34.4,27.9,34.4C27.9,34.4,27.9,34.4,27.9,34.4z"/>
	<path fill="#d66839" d="M11,34.7C11,34.7,11,34.7,11,34.7C11,34.7,11,34.7,11,34.7L11,34.7z"/>
	<path fill="#d66839" d="M11,34.6c0.1,0.1,0,0.1,0,0.2c0.1,0.1,0.1,0.1,0.2,0.1C11.2,34.7,11.1,34.7,11,34.6z"/>
	<path fill="#d66839" d="M1.1,35.2L1.1,35.2C1.2,35.1,1.2,35.2,1.1,35.2z"/>
	<path fill="#d66839" d="M28.2,42C28.2,42,28.2,42,28.2,42C28.2,42,28.2,42,28.2,42z"/>
	<path fill="#d66839" d="M2.7,35.3l0-0.2C2.7,35.2,2.7,35.3,2.7,35.3z"/>
	<path fill="#d66839" d="M34.8,33.2L34.8,33.2C34.8,33.2,34.8,33.2,34.8,33.2z"/>
	<path fill="#d66839" d="M40.4,34.3c0,0.1,0,0.1,0,0.2c0,0,0,0,0,0L40.4,34.3z"/>
	<path fill="#d66839" d="M54.2,38.2C54.2,38.1,54.2,38.1,54.2,38.2L54.2,38.2C54.2,38.2,54.2,38.2,54.2,38.2z"/>
	<path fill="#d66839" d="M44.2,35.3C44.2,35.3,44.2,35.3,44.2,35.3c-0.1-0.2-0.2-0.2-0.4-0.2l0,0.3L44.2,35.3z"/>
	<path fill="#d66839" d="M48.3,42.3l-0.4-0.6c1.3-0.3,1.9,0.3,3-0.2l-0.1,0.1c0.2,0.1,0.2-1.2,2,0.4v0.1c0.1,0,0.1-0.1,0.2,0
		l-0.3-0.4c0.2-0.2,0.3-0.4,0.6-0.5c0.1,0.1,0.1,0.2,0.1,0.3l0.6-0.1l0.2,0.4c0.2-0.2,0.1-1,0.6-0.6c-0.2-0.6,0.2-0.3,0.2-0.6
		c0,0.1,0.1,0.2,0.1,0.3c0.3-0.1,0.8-0.2,1-0.5c0,0-1.1-1.2-1.4-1.8c0.4,0.2,0.1-0.1,0-0.3l0,0.1c-0.2-0.1-0.2-0.5-0.4-0.6
		c0,0,0,0.1,0,0.1l0,0c0,0.1,0,0.1,0,0.1c0,0.1,0,0.1-0.1,0.1l0,0c-0.1,0.1-0.3,0-0.4,0l0-0.3c-0.2,0.6-1.2-0.9-1.5-0.9
		c-0.2-0.4-0.5,0.1-0.9-0.1c-0.5-0.1-0.2-0.4-0.5-0.7c-0.3-0.2,0.1,0.4-0.1,0.4l-0.4-0.4c0.2,0,0.1-0.2,0.1-0.3
		c-0.3-0.1-0.8-0.6-0.9,0c-0.4-0.3-0.4-0.5-0.6-0.6c0.1,0.1,0.2,0.2,0.2,0.3c-0.2-0.3-0.1,0.1,0,0.1c-0.3,0.3-1.4-1.1-1.4-0.4v-0.1
		c-0.1,0.5,0,1-0.1,1.2l-0.1-0.2l-0.2,0.2c-0.1-0.2-0.1-0.3-0.1-0.4c-0.3,0.2-0.7,0-1.1-0.1l0.4,1.3c-0.3-0.3-0.9-0.9-0.9-0.5
		l-0.2-0.5c-0.6-0.9-0.4,0.4-0.7,0.1L44.6,36l0.3,0c-0.3-0.2-0.4-0.4-0.7-0.7c0,0,0,0,0,0c0,0,0,0,0,0.1l0,0c0,0.2-0.2,0.4-0.4,0.4
		c-0.3-0.1-0.5,0.3-1-0.2L42.6,36l-0.4-0.3v-0.4c0.4,0,1-0.1,1.5-0.1l0-0.2c-0.3,0-0.6,0.2-0.8,0.1c-0.1-0.1-0.3-0.5-0.1-0.8
		l-0.2,0.4c-0.9,0-0.9,0.1-1.9-0.4l0.1,0.2c-0.2,0.1-0.4,0.2-0.4-0.1c-0.6-0.1-1.2-0.3-1.5-0.8l-0.1,0.5c-0.1,0-0.3-0.7-0.4-0.1
		l-0.3,0.2c-0.2,0-0.3,0.2-0.5,0c0,0,0,0,0,0c0,0,0,0,0,0c0,0,0,0,0-0.1c0,0,0,0,0,0c-0.4-0.2,0,0.4-0.4,0.2
		c-0.1-0.3-0.2,0.6-0.4,0.5l-0.2-0.7c-0.4-0.4-0.4,0.3-1,0.3c-0.3-0.2-0.4-0.8-0.2-1.3c-0.2,0.6-0.1,0.4-0.4,0.7
		c0-0.3,0-0.3,0.1-0.5c-0.3-0.3-0.2,0.2-0.4,0.2c-0.1,0.5-0.1,1.2-0.2,1.3l0.1,0.1c-0.2,0.3-0.5,0.4-0.7,0.1l0-0.2l-0.3,0.1l0-0.3
		l-0.4,0.1l0.1,0.1c-0.1,0-0.4,0.1-0.6,0l0-0.2c-0.5-0.5-0.9,0.2-1.5,0.2l0.1-0.4c-0.2-0.3-0.1,0.5-0.3,0.4l0-0.4
		c-0.2,0.6-0.3-0.1-0.4-0.3l0.1,0.6l-0.3-0.1c-0.3-0.2-0.2-0.7-0.1-1L30.1,34l0-0.5c-0.1,0.6-0.1-0.1-0.4,0.2c0-0.2,0-0.3,0-0.4
		L29.1,34l0.3-0.3l0,0.7c-0.3,0.6-0.4-0.1-0.6,0.1l0.1-0.2c-0.3,0.2-0.3-0.1-0.5-0.3c0.1,0.1,0.1,0.3,0,0.4c-0.1,0-0.1-0.3-0.1-0.3
		c0,0.5-0.2,0.7-0.4,0.5c0-0.1,0-0.1,0-0.2c-0.1,0.1-0.1,0.2-0.2,0.1l0.1-0.5l-0.2,0.5c-0.1-0.1-0.3,0.2-0.3-0.1l0.1-0.1l-0.9-0.1
		l0-0.4c-0.1,0.6-0.5-0.2-0.4,0.5c-0.2-0.4-0.6,0.3-0.6-0.5c-0.6-0.1-0.9,0.7-1.6,0.3c-0.2-0.7-0.9-0.5-1.4-0.6
		c-0.9,0.3-1.4,0.6-2.3,0.8c-0.5-1-1.3,0.3-1.9-0.2l-0.2,0.4c-0.4-0.6-1,0.1-1.5-0.5c-0.1,0.2-0.2,0.2-0.2,0.2c0,0,0.1,0.1,0.1,0.3
		c-0.2-0.2-0.5,0-0.4-0.5l0-0.1c0-0.5-0.5,0.2-0.6-0.2l0.1,0.5l-0.3-0.1l0.1-0.1c-1.3,1.2-1.8-0.5-3,0.6c0.2-0.6-0.2,0.3-0.3-0.3
		c-0.3-0.8-0.6,0.2-0.8,0.4c0,0,0,0.1,0,0.1l-0.4-0.1c0.3-0.8-0.3,0.7-0.1,0c-1.1-0.6-2.6,0-3.9-0.3l0.1,0.2c-0.3,0-0.7,0.2-1-0.1
		c-0.3-0.3-0.5,0.5-0.6,0.6c-0.3,0.4-0.5-0.4-0.4-0.3c-0.3,0.1-0.6,0.8-1,0.5c-0.1-0.7-1.1,0.7-1.1-0.1l0,0.1
		c-0.5-0.5-1,0.4-1.6-0.1c0,0,0-0.1,0-0.1L0,37.5l0.3,2.6l1,2.1L4,41.7l2.1,0.8l5.2-0.3l0.4-0.6c1,1,2.3-0.2,3.4,0.6l0-0.5
		c0.3,0,0.3,0.3,0.4,0.4c2.9-0.1,5.9-0.8,8.5-0.1c0.3,0.3,1,0.1,1.2,0.5c0.8-0.6,1.7-0.6,2.6-0.5l0,0.1l0.4-0.1c0,0,0,0.1,0,0.1
		c0.5-0.4,1.2,0,1.7,0.2l0,0.1c3.2,0.1,6.2-0.8,9.4-0.1c1.5,0.8,3.2-0.3,4.9,0.4C44.5,42.9,48,42.6,48.3,42.3z"/>
	<path fill="#d66839" d="M53.4,41.7L53.4,41.7C53.3,41.9,53.4,41.8,53.4,41.7z"/>
	<path fill="#d66839" d="M46.2,35.9C46.2,35.9,46.3,35.9,46.2,35.9l-0.1-0.3L46.2,35.9z"/>
	<path fill="#d66839" d="M50.8,35.8c-0.2-0.1-0.2,0-0.2,0.1C50.7,35.8,50.7,35.8,50.8,35.8z"/>
	<path fill="#d66839" d="M55,41.3c0.1,0,0.1-0.1,0-0.2c-0.1,0-0.2,0-0.2,0C54.9,41.1,55,41.2,55,41.3z"/>
	<path fill="#d66839" d="M54.6,38.4l0-0.2C54.6,38.3,54.6,38.4,54.6,38.4z"/>
</g>
</svg>
