<?xml version="1.0" encoding="utf-8"?>
<!-- Generator: Adobe Illustrator 17.1.0, SVG Export Plug-In . SVG Version: 6.00 Build 0)  -->
<!DOCTYPE svg PUBLIC "-//W3C//DTD SVG 1.1//EN" "http://www.w3.org/Graphics/SVG/1.1/DTD/svg11.dtd">
<svg version="1.1" id="Layer_1" xmlns="http://www.w3.org/2000/svg" xmlns:xlink="http://www.w3.org/1999/xlink" x="0px" y="0px"
	 viewBox="0 0 86.7 44.6" enable-background="new 0 0 86.7 44.6" xml:space="preserve">
<g>
	<path fill="#E4B143" d="M31.1,16.5C31.1,16.5,31.1,16.5,31.1,16.5L31.1,16.5z"/>
	<path fill="#E4B143" d="M47.4,19.2C47.4,19.2,47.4,19.2,47.4,19.2c-0.1-0.2-0.2-0.4-0.2-0.5L47.4,19.2z"/>
	<path fill="#E4B143" d="M52.5,17.1C52.5,17.1,52.5,17.1,52.5,17.1C52.4,17,52.4,16.9,52.5,17.1z"/>
	<path fill="#E4B143" d="M42.1,25.5c0,0,0,0.1,0,0.1C42.1,25.6,42.1,25.5,42.1,25.5z"/>
	<path fill="#E4B143" d="M22.9,11.2C22.9,11.2,22.9,11.2,22.9,11.2c0,0,0-0.1,0.1-0.1L22.9,11.2z"/>
	<path fill="#E4B143" d="M23.2,11c0,0.2-0.2,0.2-0.3,0.2c-0.1,0.3,0,0.4,0.2,0.4C23.3,11.3,23.1,11.2,23.2,11z"/>
	<path fill="#E4B143" d="M8.6,0.6l0.1-0.1C8.7,0.6,8.6,0.6,8.6,0.6z"/>
	<path fill="#E4B143" d="M44.3,42.7c0,0.1-0.1,0.1-0.1,0.2C44.3,42.8,44.3,42.8,44.3,42.7z"/>
	<path fill="#E4B143" d="M10.6,2.6l0.3-0.4C10.7,2.4,10.6,2.5,10.6,2.6z"/>
	<path fill="#E4B143" d="M47.2,18.8l-0.1-0.2C47.1,18.6,47.2,18.7,47.2,18.8z"/>
	<path fill="#E4B143" d="M56.6,14.4c0.1,0.1,0.2,0.2,0.2,0.3c0,0,0,0,0,0L56.6,14.4z"/>
	<path fill="#E4B143" d="M81.3,5.9c0,0-0.1-0.1-0.1-0.1l0.1,0.3C81.3,6,81.3,6,81.3,5.9z"/>
	<path fill="#E4B143" d="M63.3,12.1c0,0,0-0.1-0.1-0.2c-0.2-0.1-0.5,0.1-0.8,0.3l0.3,0.5L63.3,12.1z"/>
	<path fill="#E4B143" d="M77.6,19l-1.3-0.5c1.5-1.8,3.1-1.5,4.1-3.5l0.1,0.3c0.4,0.1-1.1-2.2,3.5-1.5l0.1,0.1
		c0.1-0.1-0.1-0.3,0.3-0.1l-0.9-0.3c0.1-0.4,0-1.1,0.3-1.4c0.2,0.1,0.3,0.2,0.5,0.4l0.7-0.8l0.7,0.4c0-0.5-1.1-1.8,0.2-1.6
		c-0.9-0.7-0.1-0.8-0.5-1.2c0.1,0.1,0.3,0.2,0.5,0.3c0.3-0.4,0.9-1.3,0.8-1.9c0,0-3.1-0.7-4.3-1.4c0.8-0.2,0.1-0.2-0.3-0.5l0.1,0.3
		c-0.5,0-1-0.5-1.2-0.6c0,0,0.1,0.1,0.1,0.2l0-0.1c0.1,0.1,0.1,0.2,0.2,0.2c0.1,0.1,0.2,0.2,0,0.3l0-0.1c-0.1,0.2-0.4,0.3-0.6,0.3
		l-0.4-0.5c0.4,1.1-2.8-0.1-3.2,0.1c-0.8-0.3-0.7,0.7-1.4,0.8c-0.8,0.4-0.9-0.4-1.5-0.6c-0.7,0,0.5,0.5,0.4,0.7l-1-0.3
		c0.3-0.3-0.1-0.5-0.3-0.6c-0.5,0.3-1.9-0.1-1.3,1c-1,0-1.3-0.4-1.6-0.2c0.2,0.1,0.5,0.1,0.7,0.3c-0.6-0.2,0,0.2,0.1,0.2
		C71.1,8,67.9,7,68.6,8.1l-0.1-0.2c0.5,0.9,1.2,1.5,1.3,2.2l-0.4-0.2l0,0.5c-0.4-0.1-0.4-0.4-0.5-0.5c-0.2,0.7-1.1,0.7-1.7,1
		l2.2,1.7c-0.8-0.2-2.4-0.6-1.9,0.2l-0.8-0.5c-1.9-0.7-0.2,1.1-0.8,0.9l-1-0.5l0.5-0.3c-0.7-0.1-1.1-0.2-1.8-0.5l0,0
		c0,0,0.1,0,0.1,0.1l0,0.1c0.2,0.4,0.2,0.9-0.1,1.1c-0.5,0.2-0.4,1.1-1.8,0.7l0.4,0.9L61,14.8l-0.5-0.6c0.6-0.3,1.4-1.3,2-1.8
		L62.3,12c-0.4,0.3-0.6,0.9-0.9,1c-0.2,0-1-0.5-1.1-1.1l0.2,0.8c-1.3,1.1-1.3,1.1-3.2,1.4l0.4,0.2c-0.1,0.4-0.3,0.8-0.7,0.3
		c-0.9,0.5-2.1,0.7-3.2,0.3l0.4,0.8c-0.2,0.1-1.3-0.9-0.6,0.3l-0.1,0.6c-0.3,0.1-0.1,0.7-0.7,0.4l0,0l0,0c0,0-0.1,0-0.1-0.1
		c0,0,0,0,0,0.1c-0.8,0.1,0.5,0.7-0.4,0.7c-0.6-0.4,0.5,1.1,0.1,1.2l-1.1-0.9c-1-0.2-0.3,0.9-1.1,1.5c-0.7-0.1-1.5-0.9-1.9-1.9
		c0.4,1.3,0.3,0.8,0.2,1.6c-0.4-0.4-0.4-0.5-0.6-0.9c-0.8-0.2,0,0.6-0.3,0.8c0.5,0.8,1.3,2.1,1.2,2.3l0.3,0.2c0,0.7-0.2,1.1-0.9,1
		l-0.3-0.4l-0.3,0.5l-0.4-0.5l-0.5,0.6l0.2,0.1c-0.1,0.2-0.4,0.7-0.9,0.6l-0.2-0.3c-1.4-0.3-1.1,1.2-1.9,1.9l-0.3-0.6
		c-0.4-0.2-0.2,0,0,0.3c0.2,0.3,0.4,0.6,0.2,0.5l-0.5-0.7c0.5,1-0.3-0.1-0.5-0.5l0.6,1L43.2,25c-0.3-0.2-0.7-1.3-1-1.8
		c0,0,0.1,0.2,0.2,0.4c0.1,0.2,0.2,0.4,0.2,0.4l-0.4-0.9c0.4,1.1-0.1-0.2,0.1,0.5c-0.1-0.4-0.2-0.5-0.3-0.7c0,0,0.4,1.5,0.4,1.5
		c0,0,0-0.2-0.1-0.3c0-0.2-0.1-0.3-0.1-0.3l0.4,1.5c0.2,1.2-0.2-0.1-0.2,0.4l0-0.5c0,0.5-0.2-0.2-0.3-0.5c0.1,0.3,0.2,0.7,0.2,1
		c0,0.1-0.1-0.6-0.2-0.7c0.2,1.1,0.1,1.8-0.1,1.3c0-0.2,0-0.3,0-0.4c0,0.2,0,0.5-0.1,0.3L42,24.6c0,0,0,0.3,0,0.6c0,0.3,0,0.6,0,0.6
		c-0.1-0.3-0.1,0.7-0.1-0.2l0-0.3l-0.1,0L41.6,25l0.1-1c-0.2,1.4,0-0.6-0.3,1.1c0.1-0.9-0.4,0.4,0.1-1.3c0-0.1-0.2,0.2-0.4,0.5
		c-0.2,0.2-0.4,0.3-0.3-0.1c0.3-0.7,0.4-0.9,0.4-1c0,0,0,0,0,0l0,0l-0.1-0.1c-0.2-0.1-0.4-0.3-0.5-0.5c-1.6-0.5-2.7-0.8-4.3-1.5
		c0.5-2.1-2.3-1-2.4-2.5l-0.7,0.4c0.2-1.4-1.5-0.9-1.5-2.5c-0.4,0.1-0.6,0.1-0.6,0.1c0,0.1,0,0.2-0.3,0.6c0-0.4-0.7-0.5,0-1.2l0.1,0
		c0.7-0.7-1-0.2-0.6-1l-0.5,0.9l-0.3-0.5l0.2-0.1c-3.3,0.4-1.9-2.9-5-2.6c1-0.7-0.7,0.2,0.1-0.8c0.6-1.6-1-0.4-1.6-0.3
		c0,0-0.1,0.1-0.2,0.2l-0.5-0.6c1.4-1-1.3,0.7-0.1-0.1c-0.8-2.2-3.6-2.9-5.1-4.9L17,6.5c-0.4-0.4-1.3-0.5-1.2-1.3
		c0.1-0.8-1.4,0.2-1.6,0.1c-0.8,0.2-0.3-1.1-0.2-1c-0.5-0.2-1.9,0.6-2-0.3c0.7-1.2-2.4-0.2-1.4-1.4l-0.1,0.1c0-1.4-1.9-0.6-2.1-2
		c0,0,0.1-0.1,0.2-0.1L4,2.9L1.2,7.3L0,11.6L4.3,14l2,3.7l7.7,5.5l1.3-0.5c0.2,2.7,3.5,2.4,4.1,4.8l0.7-0.7c0.5,0.3,0.1,0.8,0.1,1
		c2.1,1.6,4.4,2.9,6.5,4.4c1.1,0.7,2.1,1.5,3,2.3c0.2,0.2,0.5,0.4,0.7,0.6L31,36c0.8,0.8,1.6,1.5,2.4,2.4c0.4,1.1,2.5,2.4,2.8,3.6
		c1.9,0.4,3.5,1.4,5.1,2.7c0.7-0.5,1.3-1,2-1.4l-0.1,0.2l1-1c0.1,0.1,0.1,0.2,0.1,0.3c0.5-1,1.3-1.5,2.1-1.9
		c0.8-0.4,1.8-0.8,2.6-1.1l0,0.2c1.1-0.8,2.2-1.6,3.3-2.5l0.4-0.3l0.2-0.2l0.4-0.3l0.8-0.7c1.1-1,2.1-1.9,3.1-2.9
		c2.1-1.9,4.3-3.6,7-4.8c3.1-0.3,4.3-3.9,7.6-4.7C72.9,24,77.5,19.7,77.6,19z"/>
	<path fill="#E4B143" d="M84.2,12.4L84.2,12.4C84.4,12.8,84.4,12.7,84.2,12.4z"/>
	<polygon fill="#E4B143" points="67,10.9 67.1,10.8 66.6,10.5 	"/>
	<path fill="#E4B143" d="M73.5,5.7c-0.4,0.1-0.3,0.2-0.2,0.3C73.4,5.9,73.5,5.8,73.5,5.7z"/>
	<path fill="#E4B143" d="M86.2,10c0.2-0.1,0-0.2-0.3-0.4c-0.1,0.2-0.2,0.3-0.2,0.3C85.8,9.9,86,10,86.2,10z"/>
	<path fill="#E4B143" d="M82.1,5.9L82,5.6C81.9,5.7,82,5.8,82.1,5.9z"/>
</g>
</svg>
