<?xml version="1.0" encoding="utf-8"?>
<!-- Generator: Adobe Illustrator 17.1.0, SVG Export Plug-In . SVG Version: 6.00 Build 0)  -->
<!DOCTYPE svg PUBLIC "-//W3C//DTD SVG 1.1//EN" "http://www.w3.org/Graphics/SVG/1.1/DTD/svg11.dtd">
<svg version="1.1" id="Layer_1" xmlns="http://www.w3.org/2000/svg" xmlns:xlink="http://www.w3.org/1999/xlink" x="0px" y="0px"
	 viewBox="0 0 26.2 26.2" enable-background="new 0 0 26.2 26.2" xml:space="preserve">
<path fill="#EBA724" d="M13.1,0C5.9,0,0,5.9,0,13.1c0,7.2,5.9,13.1,13.1,13.1c7.2,0,13.1-5.9,13.1-13.1C26.2,5.9,20.3,0,13.1,0z
	 M15.9,13.1h-1.8c0,2.9,0,6.5,0,6.5h-2.7c0,0,0-3.6,0-6.5h-1.3v-2.3h1.3V9.3c0-1.1,0.5-2.7,2.7-2.7l2,0v2.2c0,0-1.2,0-1.5,0
	c-0.2,0-0.6,0.1-0.6,0.6v1.4h2.1L15.9,13.1z"/>
</svg>
