<?xml version="1.0" encoding="utf-8"?>
<!-- Generator: Adobe Illustrator 17.1.0, SVG Export Plug-In . SVG Version: 6.00 Build 0)  -->
<!DOCTYPE svg PUBLIC "-//W3C//DTD SVG 1.1//EN" "http://www.w3.org/Graphics/SVG/1.1/DTD/svg11.dtd">
<svg version="1.1" id="Layer_1" xmlns="http://www.w3.org/2000/svg" xmlns:xlink="http://www.w3.org/1999/xlink" x="0px" y="0px"
	 viewBox="0 0 26.2 26.2" enable-background="new 0 0 26.2 26.2" xml:space="preserve">
<path fill="#d66839" d="M13.1,0C5.9,0,0,5.9,0,13.1c0,7.2,5.9,13.1,13.1,13.1c7.2,0,13.1-5.9,13.1-13.1C26.2,5.9,20.3,0,13.1,0z
	 M19.6,10.1c-0.7,4.1-4.8,7.6-6.1,8.4c-1.2,0.8-2.4-0.3-2.8-1.2c-0.5-1-1.9-6.2-2.2-6.6c-0.4-0.4-1.5,0.4-1.5,0.4l-0.5-0.7
	c0,0,2.2-2.7,3.9-3c1.8-0.4,1.8,2.8,2.2,4.5c0.4,1.7,0.7,2.6,1.1,2.6c0.4,0,1.1-0.9,1.8-2.4c0.8-1.4,0-2.7-1.5-1.8
	C14.7,6.9,20.3,6,19.6,10.1z"/>
</svg>
