<?xml version="1.0" encoding="utf-8"?>
<!-- Generator: Adobe Illustrator 17.1.0, SVG Export Plug-In . SVG Version: 6.00 Build 0)  -->
<!DOCTYPE svg PUBLIC "-//W3C//DTD SVG 1.1//EN" "http://www.w3.org/Graphics/SVG/1.1/DTD/svg11.dtd">
<svg version="1.1" id="Layer_1" xmlns="http://www.w3.org/2000/svg" xmlns:xlink="http://www.w3.org/1999/xlink" x="0px" y="0px"
	 viewBox="345.1 222.6 150 150" enable-background="new 345.1 222.6 150 150" xml:space="preserve">
<path fill="#EBA724" d="M345.1,301.3c0-2.5,0-5,0-7.4c0.1-0.5,0.2-1,0.3-1.6c0.8-4.7,1.1-9.4,2.4-14c4.4-16.5,13.4-30,27-40.3
	c10.5-8.1,22.4-13,35.5-14.7c2-0.3,4.1-0.5,6.1-0.7c2.6,0,5.1,0,7.7,0c0.4,0.1,0.7,0.2,1.1,0.2c2.8,0.3,5.6,0.5,8.3,1
	c19.8,3.7,35.7,13.6,47.5,29.9c12.4,17.1,16.6,36.4,13,57.2c-2.7,15.5-9.8,28.9-21,39.9c-11.9,11.8-26.3,18.9-43,21.1
	c-11,1.5-21.8,0.6-32.3-2.8c-16.1-5.2-29.1-14.7-38.8-28.5c-7-10-11.4-21-12.9-33.2C345.6,305.4,345.4,303.4,345.1,301.3z
	 M382.9,299.7c0,0-0.1,0-0.1,0c0.1,2.9,0.3,5.7,0.4,8.6c0.1,4,0.8,7.9,2.2,11.6c1.2,3.3,3.4,5.6,7.1,6c2.9,0.3,5.8,0.4,8.7,0.6
	c3.6,0.1,7.2,0.3,10.8,0.3c4.8,0,9.6-0.2,14.4-0.2c4,0,8,0.1,12,0c4.1-0.1,8.3-0.3,12.4-0.6c1.9-0.1,3.6-0.8,5.1-2.3
	c1.6-1.7,2.4-3.7,3-5.8c1.2-3.9,1.5-8,1.6-12.1c0.1-4.8-0.1-9.6-0.2-14.4c-0.1-4.4-0.8-8.8-2.5-12.9c-1.1-2.7-2.9-4.7-5.9-5.2
	c-2.1-0.3-4.3-0.4-6.5-0.5c-3.2-0.1-6.5-0.3-9.7-0.3c-12.4,0.1-24.8,0.2-37.1,0.3c-1.8,0-3.6,0.1-5.4,0.3c-1.2,0.1-2.4,0.4-3.5,0.9
	c-2.6,1.1-3.6,3.5-4.6,5.9c-1.8,4.4-1.8,9.2-2.2,13.8C382.8,295.6,382.9,297.6,382.9,299.7z"/>
<path fill="#EBA724" d="M413.8,284.8c7.6,4.9,15,9.7,22.6,14.7c-7.7,4.9-15,9.7-22.6,14.6C413.8,304.1,413.8,294.6,413.8,284.8z"/>
</svg>
